<svg xmlns="http://www.w3.org/2000/svg" width="2048" height="1270"><path fill="#9ED639" fill-rule="evenodd" d="M1210.2 958.8c-2.5 35-9.7 68-32.3 96-10 11.8-21 21.5-37 25.4-20 5-36-1-50-15.3-19-20-26-45-29-72-3-30 1-58 12-85 8-19 19-36 36-48 25-18 53-12 72 11 14 17 21 37 23 59 1 9 1 18 2 27zm-73-23.6c0-12-3.6-20.4-11.6-26.8-6-5-12-5.4-18.3-1.3-17.8 12-17 41-1.2 53 7 5 13 5 20 0 9-6 12-15 12-23zm299.8 21c-.4-23 4-42.4 17.2-59 9.7-12.4 22.7-19.6 38.4-20.6 10.4-.7 20 3 28.8 8.5 23.8 15 38.2 37 46.3 63 4 13 7.6 26 6.8 40-1 19-5 38-17 54-19.2 26-48.7 30-74.4 11-21-16-34-38-41-64-3-10-5-21-4-30zm69-9.6c0-13.2-11.4-25.7-23.4-25.6-11.2 0-22.5 13-22.6 25.6 0 13 11.4 25.2 23 25.6 9.8.4 24.6-13 23-25.6z" clip-rule="evenodd"/><g fill-rule="evenodd" clip-rule="evenodd"><path fill="#9ED639" d="M80 1201c-5.2-2-8-6-8-11.3 0-48.5-.4-97 .2-145.5.2-15 4-30 7-44.6 6-28.8 14-57 23.7-84.8 12-36 28-70.3 46-103.6 11-21.8 24-43 39-63 12-17.6 25-35 38-51.5 11-13.3 22-26 33-39 12-13.8 25-27 39-39.6 29-26 59-52 91-75 26-18 53-35 80-52 12-7 24-13 37-20 9-5 11-12 5-21-13-19-26-36-40-54-18-22-37-43-58-62-16-15-33-29-50-43-15-12-31-24-48-35-5-3-9-8-7-14 1-5 8-12 14-12 3 0 6 2 9 3l37 20c23 12 45 26 66 41 13 10 27 20 40 31l24 21c13 12 25 24 37 37 13 14 25 27 37 42 5 7 13 9 21 6 25-10 50-20 76-28 27-8 55-17 83-24 25-6 50-11 75-15 17-3 35-5 52-8 14-2 29-3 44-5 18-2 36-2 54-3 22-1 44-3 67-1 12 1 24-1 36 1s25 1.5 38 2c15 1 31 2.8 46 4.7 14 1.6 28 3 41.4 5 21 3.8 41.7 7 62 12 22 4.7 43.6 9.7 65 15.4 28 7.6 55.7 17 83 26.7 22 7 43.6 16 64.7 26 27.6 12 55 25 81 40l25.6 15c3.6 2 6 4 5 8-1.4 4-5.5 4-8.4 4-9 0-18-1-26.8-2-1 0-2.4-.7-3.5-.7-26 0-52-2-78-1l-62 3c-16 1-33 2-49 5-10 2-20.4 2-31 4l-39 6c-13 2-26 4-39 7l-46 8c-36 7-72 16.2-108 25.3-16 4-32 9-48 14-22 6.3-44 15-67 22-22 8-45 17.6-67 27-26.5 11-52 24-78 37.3-22.5 11-44.4 24-66 38-15 9.3-30 19-44 30-13 10.5-27 21-39 32-12.7 12-26 23-38 35-20.5 22-39.8 45-57 69-19.7 27-35.7 55.3-49.6 85-11 25-20 50-27 76.4-4.8 16.6-8 33-11.8 49-2 10-3 20.6-4.7 30.6-3 17-3 34.3-4.7 51.4-1 11-1 22-1 33 0 9-6 15-14 15h-54l-3-9c-8-17.7-16-35-22-53.7-9-26-17-52-23-79-3-15.8-7-31-9-47-2-14-4-28-4.5-43 0-7-9-14-14-11-10 4-20 7-30 8-9 .6-17 0-25-5 5.3 1 11 2.7 16.2 3 16 .7 30.4-3.3 44.4-11 33-18 60-43 82.4-72 19-25 35-51.3 47-80 12-28 21-57 24-87.5 1-15 1-29.7-2-44.3-3-16-11-30-25-40-15-11-32-11-49-8-12 2-22 8.3-33 14 0-1.6.7-2 1.7-2.6 5.6-3 10.8-6 16-8 9-3 16-8 20-16 12-24 26-46 41-68 23-34 49-65 77.6-94 6.4-7 7-13 1.8-20-12-16-25-30-38-44-14.6-15-30-29-46-43-11-10-22-19-33-28-24-18-49-35-75-50.6-13-7.7-25-15-39-20-2-1-4.6-2-6 1-1 2-.5 4.2 1.8 6l10 7.2c25 18 49 37 71 58s43 42 62 65c18 21.4 35 43 49 67 7 12 6 19-7 27-7 4-14 8-22 12-21 12.4-44 25-64 39-31 20.3-61 42-89 66.2-16 14-31.6 28-47 42.3-14.2 13-27.4 28-40.4 43s-26 30-38 45.7c-22 29-42 59-60 91-18.2 35-35 71-48 108.5-8 28-15 56-22 84-4 19-6 38-7 57v117c0 3 1 7 1 10 1 3 1.8 7-.3 11z"/><path fill="#9ED639" d="M606 1117.6c0-13.7-.3-22.8 0-32 .8-18.6 3-37 5.8-55.4 3.3-22.3 8.7-44.2 15-65.8 8.3-28 19.8-54.5 33.6-80 13-24 28-46.6 45.3-67.7 13-15.8 26-31.4 40.7-45.4 20.7-19.5 42.5-37.8 65.6-54.5 20-14.5 41-27.8 62.2-40.3 24.8-14.6 50.5-27.2 76.7-39 23-10.7 47-20.3 71-29 27-10 55-19 83-27 37-10.5 74-20 111-27.8 23-4.8 47-9.2 70-13.5 16-3 32-5 48-7.2 15-2 30-4.5 45-5.8 13-1.2 26-2.8 39-3.3l43-3c22-2 44-1 66-1 15 0 30 1 46 3 33 3 67 9 99 19 24 7 47 15 69 27 19 10 38 22 55 36 11 9 21 18 31 28 17 19 33 39 46 61 17 30 31 62 42 95 7 23 13 46 18 69l9 49 6 46c2 16 3 33 5 49 1 9 1 18 2 28 2 18 0 36 3 54 1 7 1 16 1 23 0 17 2 35 2 52v26c0 8-6 15-15 15h-52c-7 0-14-8-14.8-14-1-12-2-24-3.3-35-1.5-10-2.7-20-3.7-30-1-11-3-21-4-31-1-12-4-24-5-35-2-16-4.6-31-7.5-46-5.5-29-12-57-20.6-85-4.3-15-10.3-29-16-43-10.3-26-24-51-40.5-74-6.6-9-13.6-18-21-26-5-6-10.4-11-16-17-18-18-38-32-60.4-45-23.6-13-48.3-24-74.3-32-23.3-7-47.3-13-72-17-14-2-28-3.4-42-5l-39-3c-19.7-1-39-2-58-1.5-18 .3-35 1-52.6 2-14 1-29 1.4-44 3-15 2-31 2.4-46 5-14 2-29 3-43 5-14 2.4-27 4.4-41 7l-45 8.5c-26 4-51 10-76 17-26 7-52 14.3-77 23.3-24 8.2-47 17.2-69 27.7-19 9-37 18-55 28-20 12-39 25-58 39-20 14.4-37 31-54 49-17.4 19-32.6 39-45.6 61s-23 45.2-31 70c-6.2 19-11 39-14 59.2-3.3 25-5.2 50-3.6 75.5 1 15 2 30 4.4 44.6 1 5-5 13-11 13h-15c-6.6 0-13-7-14-14-4-25-5.8-50.4-5-71.4z"/><path fill="#6E9429" d="M306 963c7.6 4.7 16.2 5.4 24.8 4.7 10.3-1 20.4-3.7 30-8 5.4-2.4 14 4.6 14 11.7.4 14.5 2.6 28.7 4.5 43 2 15.6 5.6 31 8.7 46.6 5.6 27 13.7 53.2 23 79 6.4 18.4 14.2 36 22 54 1.2 2.8 2 6 3 8.8l-5 .2H87.2c-2.6 0-5.3.4-7.2-2 2-3.3 1.2-7 .7-10.5-.4-3.4-.7-6.6-.7-10 0-38.8-.2-77.6 0-116.4.2-19 2.5-38 7-57 6.5-28 13.5-56 23-83 13-37 29-73 48-108 17.5-32 38-62 60-91 11.8-15 24.5-30 37.5-45s26.3-30 41-43c15.2-14 31-28 46.8-42 28-24 58.3-46 89-66 20.7-14 42.7-26 64.7-39 7.3-4 15-7 21.8-12 13-8 14.3-15 7-27-14.2-24-31.3-45-49-67-19-23-40-44-61.8-65-22.4-21-46.5-39-71.3-57l-9.7-8c-2.5-1-2.7-4-1.8-6 1.2-2 3.7-1 5.7-1 13 6 26 13 38 21 26 15 51 32 75 51l33 27c16 14 31 28 45 43 13 14 26 28 38 44 5 7 4 13-2 20-28 29-54 60-77 93-15 22-29 44-41 68-5 8-12 13-21 16-6 2-11 5-16 8-1 1-2 1-2 2-2 0-5 0-5 3-2 0-4 0-4 2-17 13-33 25-46 41-14 16-27 32-38 50-18 29-33 60-42 93-6 22-10 43-10 66 0 6 1 12 2 18 1 10 4 20 9 28 6 12 15 21 28 27z"/><path fill="#9ED639" d="M67 159.3c-.8-27.8 8-51 23.8-71.4 19.2-25 45-40 75.4-46 27-6 53.2-2 78.6 9 16 7 30 16 41.8 29C303 97 314 118 318 142c6 32.8-2 62.5-21.7 88.5-18.8 24.7-44 40-75 46.2-11.8 2.2-23.6 3.5-35.4 2.4-27-2-51-10-73-27-20-16-34-35-42-59-4-11-6-23-5-33zm148.3 55.5c-18.5 1.6-35.6-3.2-52-12-19.7-10.8-33-27-41.5-47.8-4.7-11.4-3.3-23-4-35-.6-14.8 4.4-27.8 11.7-40.3 2.8-5 7-9 8.8-14.4 1.5-4 0-6-4-5.2-4.4 1-8.4 3-12 5C112 73 101.8 82 94 92c-21 27-29 58-20.5 91.4 6.3 24.8 19.3 46 39.6 62.3 27 21.3 57 32.7 92 30.2 14-1 27-5 40-11 29-13 50-35 64-64 5-11 8-22 8-33 0-3 0-7-4-8-3-1-6 0-8 4-6 12-15 23-27 31-19 12-39 19-61 17zM411 636c-1.2 1.7-3.4 2-5 3 .5-3 2.8-3 5-3zm-5 3c-1 1.4-2.4 1.8-4 2 .7-1.8 2.2-2.2 4-2z"/><path fill="#6E9429" d="M215.3 214.8c22.6 1.8 42.7-5 61-17.5 11.8-8 21-18.4 27.4-31 2-3.7 4-5 7.8-4.2 4.2 1 4.6 5 4.4 8-1 12-4 23-9 33-13 29-34 50-63 63-13 6-26 10-40 11-35 3-65-9-92-30-20-16-33-37-40-62-8-34 0-64 21-92 7-10 17-19 28-27 3-2 7-4 11-5 4 0 6 2 4 6-2 6-6 10-9 15-7 12-12 25-12 40 0 12-1 24 3 35 8 21 22 37 41 48 16 9 33 14 52 12z"/></g></svg>